HIERARCHY
ROOT reference
{
  OFFSET 0 0 0
  CHANNELS 6 Xposition Yposition Zposition Zrotation Xrotation Yrotation
  JOINT Hips
  {
    OFFSET -38.8236 71.8932 -181.857
    CHANNELS 6 Xposition Yposition Zposition Zrotation Xrotation Yrotation
    JOINT Spine
    {
      OFFSET 0 7.31558 0
      CHANNELS 6 Xposition Yposition Zposition Zrotation Xrotation Yrotation
      JOINT Spine1
      {
        OFFSET 0 21.7428 0
        CHANNELS 6 Xposition Yposition Zposition Zrotation Xrotation Yrotation
        JOINT Neck
        {
          OFFSET 0 21.6535 1.9685
          CHANNELS 6 Xposition Yposition Zposition Zrotation Xrotation Yrotation
          JOINT Head
          {
            OFFSET 0 12.49 -1.78429
            CHANNELS 6 Xposition Yposition Zposition Zrotation Xrotation Yrotation
            End Site
            {
              OFFSET 0 22.3036 0
            }
          }
        }
        JOINT LeftShoulder
        {
          OFFSET 3.56546 21.4407 -0.045508
          CHANNELS 6 Xposition Yposition Zposition Zrotation Xrotation Yrotation
          JOINT LeftArm
          {
            OFFSET 5.86532 0 0
            CHANNELS 6 Xposition Yposition Zposition Zrotation Xrotation Yrotation
            JOINT LeftForeArm
            {
              OFFSET 30.0831 0 0
              CHANNELS 6 Xposition Yposition Zposition Zrotation Xrotation Yrotation
              JOINT LeftHand
              {
                OFFSET 21.3133 0 0
                CHANNELS 6 Xposition Yposition Zposition Zrotation Xrotation Yrotation
                End Site
                {
                  OFFSET 13.3822 0 0
                }
              }
            }
          }
        }
        JOINT RightShoulder
        {
          OFFSET -3.55605 21.4407 -0.045508
          CHANNELS 6 Xposition Yposition Zposition Zrotation Xrotation Yrotation
          JOINT RightArm
          {
            OFFSET -5.86532 0 0
            CHANNELS 6 Xposition Yposition Zposition Zrotation Xrotation Yrotation
            JOINT RightForeArm
            {
              OFFSET -30.0831 0 0
              CHANNELS 6 Xposition Yposition Zposition Zrotation Xrotation Yrotation
              JOINT RightHand
              {
                OFFSET -21.3133 0 0
                CHANNELS 6 Xposition Yposition Zposition Zrotation Xrotation Yrotation
                End Site
                {
                  OFFSET -13.3822 0 0
                }
              }
            }
          }
        }
      }
    }
    JOINT LeftUpLeg
    {
      OFFSET 8.92144 0 0
      CHANNELS 6 Xposition Yposition Zposition Zrotation Xrotation Yrotation
      JOINT LeftLeg
      {
        OFFSET 0 -39.6329 0
        CHANNELS 6 Xposition Yposition Zposition Zrotation Xrotation Yrotation
        JOINT LeftFoot
        {
          OFFSET 0 -38.0584 0
          CHANNELS 6 Xposition Yposition Zposition Zrotation Xrotation Yrotation
          JOINT LeftToeBase
          {
            OFFSET 0 -5.79894 13.3822
            CHANNELS 6 Xposition Yposition Zposition Zrotation Xrotation Yrotation
            End Site
            {
              OFFSET 0 0 3.56858
            }
          }
        }
      }
    }
    JOINT RightUpLeg
    {
      OFFSET -8.92144 0 0
      CHANNELS 6 Xposition Yposition Zposition Zrotation Xrotation Yrotation
      JOINT RightLeg
      {
        OFFSET 0 -39.6329 0
        CHANNELS 6 Xposition Yposition Zposition Zrotation Xrotation Yrotation
        JOINT RightFoot
        {
          OFFSET 0 -38.0584 0
          CHANNELS 6 Xposition Yposition Zposition Zrotation Xrotation Yrotation
          JOINT RightToeBase
          {
            OFFSET 0 -5.79894 13.3822
            CHANNELS 6 Xposition Yposition Zposition Zrotation Xrotation Yrotation
            End Site
            {
              OFFSET 0 0 3.56858
            }
          }
        }
      }
    }
  }
}
MOTION
Frames:	6
Frame Time:	0.004
0 0 0 0 0 -0 -6.96492 76.028 -207.677 -0.994651 -5.08265 7.44562 -3.55271e-015 7.31558 0 0.63231 -0.908098 0.165749 0 21.7428 0 1.38283 -3.26161 0.201866 3.55271e-015 21.6535 1.9685 -1.61794 16.1134 1.30607 3.55271e-015 12.49 -1.78429 -4.07628 -2.60339 0.695363 3.56546 21.4407 -0.045508 14.4688 -2.16658 -8.66294 5.86532 -2.84217e-014 -2.84217e-014 -17.7437 4.06061 4.53135 30.0831 -2.84217e-014 -2.84217e-014 -2.39963 1.02273 7.46169 21.3133 0 0 -3.51186 1.25936 -2.61457 -3.55605 21.4407 -0.045508 -13.8049 -1.57694 -2.24053 -5.86532 -2.84217e-014 0 13.1368 -4.43397 -3.51035 -30.0831 0 0 -2.24697 -0.083824 -5.11747 -21.3133 0 0 9.30175 0.17174 4.37331 8.92144 0 0 1.16441 8.05173 1.34837 0 -39.6329 -2.84217e-014 -2.08387 2.25577 -2.56771 0 -38.0584 0 5.92035 -14.1073 6.07425 -7.10543e-015 -5.79894 13.3822 1.19271e-015 -1.59028e-015 -3.18055e-015 -8.92144 -1.42109e-014 0 2.58999 11.0342 5.23893 7.10543e-015 -39.6329 0 3.98411 -1.9686 -1.27421 3.55271e-015 -38.0584 -2.84217e-014 -9.22715 -9.57055 -18.5938 -7.10543e-015 -5.79894 13.3822 -2.98177e-016 0 -7.95139e-016 
0 0 0 0 0 -0 -6.96492 76.028 -207.677 -0.995933 -5.08568 7.42702 -3.55271e-015 7.31558 0 0.621256 -0.890942 0.165748 3.55271e-015 21.7428 2.84217e-014 1.38302 -3.31518 0.201877 0 21.6535 1.9685 -1.60627 16.1426 1.30626 -7.10543e-015 12.49 -1.78429 -4.08466 -2.58013 0.695351 3.56546 21.4407 -0.045508 14.5354 -2.17374 -8.66298 5.86532 0 0 -17.7708 4.15003 4.61417 30.0831 0 0 -2.13386 1.06012 7.39097 21.3133 0 -2.84217e-014 -3.67434 1.2801 -2.56217 -3.55605 21.4407 -0.045508 -13.7897 -1.58499 -2.24054 -5.86532 0 0 13.108 -4.24699 -3.54132 -30.0831 0 0 -2.06539 -0.278102 -5.08605 -21.3133 2.84217e-014 0 8.49605 -0.066165 4.08675 8.92144 0 0 1.16441 8.05173 1.34837 -7.10543e-015 -39.6329 2.84217e-014 -2.08308 2.24273 -2.60259 0 -38.0584 0 5.92665 -14.1006 6.10265 -7.10543e-015 -5.79894 13.3822 0 0 -1.59028e-015 -8.92144 -1.42109e-014 2.84217e-014 2.58586 11.0364 5.25932 7.10543e-015 -39.6329 0 3.99693 -1.96864 -1.23095 -3.55271e-015 -38.0584 -2.84217e-014 -9.2746 -9.54986 -18.6318 0 -5.79894 13.3822 -9.93923e-017 7.95139e-016 -0 
0 0 0 0 0 -0 -6.96492 76.028 -207.677 -0.99778 -5.07258 7.4254 0 7.31558 -2.84217e-014 0.607289 -0.892912 0.165748 0 21.7428 2.84217e-014 1.39683 -3.34619 0.201883 0 21.6535 1.9685 -1.62926 16.1514 1.30632 -3.55271e-015 12.49 -1.78429 -4.06356 -2.55872 0.695339 3.56546 21.4407 -0.045508 14.539 -2.1819 -8.66303 5.86532 0 0 -17.5885 4.00147 4.6183 30.0831 0 0 -2.38427 1.15252 7.45043 21.3133 -2.84217e-014 0 -3.53776 1.3887 -2.6191 -3.55605 21.4407 -0.045508 -13.7884 -1.58652 -2.24054 -5.86532 0 2.84217e-014 13.0907 -4.22645 -3.54835 -30.0831 0 0 -2.08401 -0.277943 -5.07138 -21.3133 0 -5.68434e-014 8.50546 -0.067363 4.07267 8.92144 1.42109e-014 -2.84217e-014 1.16642 8.03706 1.33648 7.10543e-015 -39.6329 0 -2.09266 2.25127 -2.54518 0 -38.0584 0 5.91699 -14.091 6.08038 0 -5.79894 13.3822 3.97569e-016 1.59028e-015 -1.59028e-015 -8.92144 0 0 2.58762 11.0188 5.25842 7.10543e-015 -39.6329 0 4.0019 -1.96863 -1.23576 -3.55271e-015 -38.0584 0 -9.2297 -9.55525 -18.6316 0 -5.79894 13.3822 -9.93923e-017 7.95139e-016 -1.59028e-015 
0 0 0 0 0 -0 -6.96809 76.028 -207.677 -0.996583 -5.08947 7.41437 3.55271e-015 7.31558 -2.84217e-014 0.593813 -0.86484 0.16563 0 21.7428 0 1.41624 -3.37612 0.206896 0 21.6535 1.9685 -1.63571 16.1701 1.30645 0 12.49 -1.78429 -4.07753 -2.56166 0.689364 3.56546 21.4407 -0.045508 14.5683 -2.18364 -8.66304 5.86532 0 0 -17.5809 4.03972 4.63006 30.0831 0 -2.84217e-014 -2.33743 1.13296 7.45306 21.3133 0 0 -3.52597 1.36552 -2.60948 -3.55605 21.4407 -0.045508 -13.7991 -1.60526 -2.24528 -5.86532 0 0 13.0813 -4.21 -3.55084 -30.0831 2.84217e-014 0 -2.09409 -0.260746 -5.07007 -21.3133 0 -2.84217e-014 8.49901 -0.050036 4.08412 8.92144 0 -2.84217e-014 1.16323 8.05598 1.35608 7.10543e-015 -39.6329 -2.84217e-014 -2.07473 2.2503 -2.56282 0 -38.0584 2.84217e-014 5.90137 -14.0924 6.0773 -7.10543e-015 -5.79894 13.3822 -1.59028e-015 0 -1.59028e-015 -8.92144 0 0 2.58912 11.0309 5.24503 1.42109e-014 -39.6329 -2.84217e-014 4.00055 -1.96861 -1.26609 7.10543e-015 -38.0584 0 -9.26496 -9.56051 -18.5736 0 -5.79894 13.3822 4.96962e-016 0 -7.95139e-016 
0 0 0 0 0 -0 -6.971 76.028 -207.677 -0.996835 -5.09425 7.40472 -3.55271e-015 7.31558 0 0.586385 -0.858853 0.165467 0 21.7428 -2.84217e-014 1.41905 -3.39924 0.210214 0 21.6535 1.9685 -1.63622 16.2128 1.30353 0 12.49 -1.78429 -4.07453 -2.59035 0.685199 3.56546 21.4407 -0.045508 14.6226 -2.18039 -8.66302 5.86532 0 0 -17.5871 4.07959 4.65568 30.0831 0 -2.84217e-014 -2.30613 1.15331 7.37792 21.3133 0 0 -3.06527 1.35373 -1.9329 -3.55605 21.4407 -0.045508 -13.7839 -1.59499 -2.22831 -5.86532 0 0 13.0435 -4.19334 -3.5522 -30.0831 0 0 -2.07768 -0.263179 -5.11285 -21.3133 -2.84217e-014 2.84217e-014 8.49561 -0.049446 4.12598 8.92144 1.42109e-014 2.84217e-014 1.16494 8.0635 1.34268 0 -39.6329 0 -2.08964 2.24885 -2.53649 0 -38.0584 -2.84217e-014 5.94085 -14.1018 6.07949 7.10543e-015 -5.79894 13.3822 0 0 -0 -8.92144 1.42109e-014 0 2.58216 11.04 5.2768 0 -39.6329 2.84217e-014 4.00098 -1.97419 -1.23863 -3.55271e-015 -38.0584 0 -9.22332 -9.56187 -18.6153 0 -5.79894 13.3822 7.95139e-016 7.95139e-016 -0 
0 0 0 0 0 -0 -6.97248 76.028 -207.677 -0.996924 -5.09032 7.40937 0 7.31558 0 0.574376 -0.860889 0.165268 0 21.7428 0 1.4392 -3.41558 0.21088 -7.10543e-015 21.6535 1.9685 -1.66488 16.2212 1.30145 0 12.49 -1.78429 -4.0631 -2.58365 0.679651 3.56546 21.4407 -0.045508 14.6264 -2.21014 -8.65534 5.86532 0 0 -17.5671 4.14287 4.67521 30.0831 0 2.84217e-014 -2.24315 1.12678 7.44273 21.3133 0 2.84217e-014 -3.38609 1.34743 -2.52877 -3.55605 21.4407 -0.045508 -13.812 -1.60878 -2.24359 -5.86532 0 -2.84217e-014 13.0524 -4.18428 -3.55348 -30.0831 0 0 -2.28413 -0.137907 -5.13045 -21.3133 0 2.84217e-014 9.39406 0.123837 4.43119 8.92144 0 0 1.16512 8.04654 1.34419 0 -39.6329 -2.84217e-014 -2.08304 2.25391 -2.54657 3.55271e-015 -38.0584 2.84217e-014 5.93973 -14.0976 6.08152 0 -5.79894 13.3822 -5.96354e-016 0 1.59028e-015 -8.92144 0 2.84217e-014 2.58029 11.0308 5.28745 0 -39.6329 0 4.00078 -1.97793 -1.22848 -3.55271e-015 -38.0584 0 -9.26844 -9.53186 -18.6438 0 -5.79894 13.3822 6.95746e-016 0 -1.59028e-015 
